<svg width="97" height="17" xmlns="http://www.w3.org/2000/svg"><g fill="#81B3D2" fill-rule="nonzero"><path d="M9.002 0l2.126 6.494h6.877l-5.564 4.012L14.566 17l-5.564-4.013L3.438 17l2.126-6.494L0 6.494h6.878zM29.002 0l2.126 6.494h6.877l-5.564 4.012L34.566 17l-5.564-4.013L23.438 17l2.126-6.494L20 6.494h6.878zM49.002 0l2.126 6.494h6.877l-5.564 4.012L54.566 17l-5.564-4.013L43.438 17l2.126-6.494L40 6.494h6.878zM69.002 0l2.126 6.494h6.877l-5.564 4.012L74.566 17l-5.564-4.013L63.438 17l2.126-6.494L60 6.494h6.878zM88.002 0l2.126 6.494h6.877l-5.564 4.012L93.566 17l-5.564-4.013L82.438 17l2.126-6.494L79 6.494h6.878z"/></g></svg>