<?xml version="1.0" encoding="UTF-8"?>
<svg width="97px" height="17px" viewBox="0 0 97 17" version="1.1" xmlns="http://www.w3.org/2000/svg" xmlns:xlink="http://www.w3.org/1999/xlink">
    <!-- Generator: Sketch 57.1 (83088) - https://sketch.com -->
    <title>Group</title>
    <desc>Created with Sketch.</desc>
    <g id="Symbols" stroke="none" stroke-width="1" fill="none" fill-rule="evenodd">
        <g id="Group" fill="#81B3D2" fill-rule="nonzero">
            <g id="star">
                <polygon id="Shape" points="9.002 0 11.128 6.494 18.005 6.494 12.441 10.506 14.566 17 9.002 12.987 3.438 17 5.564 10.506 -1.77635684e-15 6.494 6.878 6.494"></polygon>
            </g>
            <g id="star-copy" transform="translate(20.000000, 0.000000)">
                <polygon id="Shape" points="9.002 0 11.128 6.494 18.005 6.494 12.441 10.506 14.566 17 9.002 12.987 3.438 17 5.564 10.506 -1.77635684e-15 6.494 6.878 6.494"></polygon>
            </g>
            <g id="star-copy-2" transform="translate(40.000000, 0.000000)">
                <polygon id="Shape" points="9.002 0 11.128 6.494 18.005 6.494 12.441 10.506 14.566 17 9.002 12.987 3.438 17 5.564 10.506 -1.77635684e-15 6.494 6.878 6.494"></polygon>
            </g>
            <g id="star-copy-3" transform="translate(60.000000, 0.000000)">
                <polygon id="Shape" points="9.002 0 11.128 6.494 18.005 6.494 12.441 10.506 14.566 17 9.002 12.987 3.438 17 5.564 10.506 -1.77635684e-15 6.494 6.878 6.494"></polygon>
            </g>
            <g id="star-copy-4" transform="translate(79.000000, 0.000000)">
                <polygon id="Shape" points="9.002 0 11.128 6.494 18.005 6.494 12.441 10.506 14.566 17 9.002 12.987 3.438 17 5.564 10.506 -1.77635684e-15 6.494 6.878 6.494"></polygon>
            </g>
        </g>
    </g>
</svg>